# xmcd CD database file generated by OrangeCD 6.1
#
# Track frame offsets:
#	150
#	11371
#	24523
#	35828
#	49020
#	66250
#	82994
#	96666
#	109521
#	124429
#	135074
#	147310
#	160308
#	179103
#	189801
#	199247
#	211061
#	222405
#	234315
#	246541
#	263422
#	281226
#	296573
#	312286
#
# Disc length: 4386 seconds
#
# Revision: 0
# Processed by: cddbd v1.5.2PL0 Copyright (c) Steve Scherf et al.
# Submitted via: OrangeCD 6.1
#
DISCID=67112018
DTITLE=Various Artist - Country Collection
DYEAR=2007
DGENRE=Country
TTITLE0=Frankie Laine - Answer me (Mutterlein)
TTITLE1=Johnny Lee - Blueberry Hill
TTITLE2=Johnny Lee - Candy Store
TTITLE3=Faron Young - Chapel In The Moonlight
TTITLE4=Johnny Paycheck - Coming Home to My Heart
TTITLE5=Johnny Lee - Daddy Number Two
TTITLE6=Johnny Lee - Dear Alice
TTITLE7=Razzy Bailey - Don't Talk to the Baby
TTITLE8=Johnny Lee - Frisco
TTITLE9=Ferlin Husky - Gone
TTITLE10=Frankie Laine - High Noon (Do Not Forsake Me)
TTITLE11=Eddie Raven - I Don't Like Planes
TTITLE12=Razzy Bailey - I Keep Coming Back
TTITLE13=Johnny Paycheck - I'm a Coward
TTITLE14=Johnny Paycheck - I'm Remembering
TTITLE15=Don Williams - On Her Way to Being a Woman
TTITLE16=Razzy Bailey - She Wanted To
TTITLE17=Johnny Paycheck - Something About You I Love
TTITLE18=Ferlin Husky - Sweet Memories
TTITLE19=Carl Perkins - Sweeter Than Candy
TTITLE20=Ronnie McDowell - The King Is Gone
TTITLE21=Carl Perkins - Twenty-One
TTITLE22=Ronnie McDowell - Unchained Melody
TTITLE23=Johnny Lee - Your Song
EXTD=
EXTT0=
EXTT1=
EXTT2=
EXTT3=
EXTT4=
EXTT5=
EXTT6=
EXTT7=
EXTT8=
EXTT9=
EXTT10=
EXTT11=
EXTT12=
EXTT13=
EXTT14=
EXTT15=
EXTT16=
EXTT17=
EXTT18=
EXTT19=
EXTT20=
EXTT21=
EXTT22=
EXTT23=
PLAYORDER=
